<svg width="3100" height="469" viewBox="0 0 3100 469" fill="none" xmlns="http://www.w3.org/2000/svg">
<g clip-path="url(#clip0_102_279)">
<rect width="3100" height="469" rx="10" fill="white"/>
<rect width="3100" height="469" fill="url(#paint0_linear_102_279)"/>
<path d="M1424.22 121.644C1420.18 121.644 1416.96 120.54 1414.56 118.332C1412.17 116.093 1410.98 112.904 1410.98 108.764V101.036C1410.98 96.896 1412.17 93.722 1414.56 91.514C1416.96 89.2753 1420.18 88.156 1424.22 88.156C1428.27 88.156 1431.49 89.2753 1433.88 91.514C1436.28 93.722 1437.47 96.896 1437.47 101.036V108.764C1437.47 112.904 1436.28 116.093 1433.88 118.332C1431.49 120.54 1428.27 121.644 1424.22 121.644ZM1424.22 116.216C1426.49 116.216 1428.26 115.557 1429.51 114.238C1430.77 112.919 1431.4 111.156 1431.4 108.948V100.852C1431.4 98.644 1430.77 96.8807 1429.51 95.562C1428.26 94.2433 1426.49 93.584 1424.22 93.584C1421.99 93.584 1420.22 94.2433 1418.93 95.562C1417.68 96.8807 1417.05 98.644 1417.05 100.852V108.948C1417.05 111.156 1417.68 112.919 1418.93 114.238C1420.22 115.557 1421.99 116.216 1424.22 116.216ZM1451.68 121.368C1449.9 121.368 1448.33 120.969 1446.98 120.172C1445.67 119.344 1444.64 118.209 1443.9 116.768C1443.17 115.327 1442.8 113.671 1442.8 111.8V98.184H1448.59V111.34C1448.59 113.057 1449.01 114.345 1449.84 115.204C1450.69 116.063 1451.91 116.492 1453.47 116.492C1455.25 116.492 1456.63 115.909 1457.61 114.744C1458.59 113.548 1459.08 111.892 1459.08 109.776V98.184H1464.88V121H1459.17V118.01H1458.35C1457.98 118.777 1457.29 119.528 1456.28 120.264C1455.26 121 1453.73 121.368 1451.68 121.368ZM1471.33 121V98.184H1477.03V100.76H1477.86C1478.2 99.84 1478.75 99.1653 1479.52 98.736C1480.31 98.3067 1481.23 98.092 1482.28 98.092H1485.04V103.244H1482.18C1480.71 103.244 1479.5 103.643 1478.55 104.44C1477.6 105.207 1477.12 106.403 1477.12 108.028V121H1471.33ZM1501.06 121V88.8H1521.3V94.32H1507.13V102.094H1520.2V107.614H1507.13V121H1501.06ZM1536.03 121.644C1533.76 121.644 1531.76 121.169 1530.01 120.218C1528.29 119.237 1526.94 117.872 1525.96 116.124C1525.01 114.345 1524.53 112.26 1524.53 109.868V109.316C1524.53 106.924 1525.01 104.854 1525.96 103.106C1526.91 101.327 1528.24 99.9627 1529.96 99.012C1531.68 98.0307 1533.67 97.54 1535.94 97.54C1538.18 97.54 1540.13 98.046 1541.78 99.058C1543.44 100.039 1544.73 101.419 1545.65 103.198C1546.57 104.946 1547.03 106.985 1547.03 109.316V111.294H1530.42C1530.48 112.858 1531.07 114.131 1532.17 115.112C1533.27 116.093 1534.62 116.584 1536.22 116.584C1537.84 116.584 1539.04 116.231 1539.81 115.526C1540.57 114.821 1541.16 114.039 1541.55 113.18L1546.29 115.664C1545.86 116.461 1545.23 117.335 1544.41 118.286C1543.61 119.206 1542.54 120.003 1541.19 120.678C1539.84 121.322 1538.12 121.644 1536.03 121.644ZM1530.47 106.97H1541.14C1541.02 105.651 1540.48 104.593 1539.53 103.796C1538.61 102.999 1537.4 102.6 1535.9 102.6C1534.33 102.6 1533.09 102.999 1532.17 103.796C1531.25 104.593 1530.68 105.651 1530.47 106.97ZM1559.27 121.644C1557.65 121.644 1556.19 121.368 1554.9 120.816C1553.61 120.233 1552.59 119.405 1551.82 118.332C1551.08 117.228 1550.71 115.894 1550.71 114.33C1550.71 112.766 1551.08 111.463 1551.82 110.42C1552.59 109.347 1553.63 108.549 1554.95 108.028C1556.3 107.476 1557.83 107.2 1559.55 107.2H1565.8V105.912C1565.8 104.839 1565.47 103.965 1564.79 103.29C1564.12 102.585 1563.04 102.232 1561.57 102.232C1560.13 102.232 1559.06 102.569 1558.35 103.244C1557.65 103.888 1557.19 104.731 1556.97 105.774L1551.63 103.98C1552 102.815 1552.59 101.757 1553.38 100.806C1554.21 99.8247 1555.3 99.0427 1556.65 98.46C1558.03 97.8467 1559.7 97.54 1561.66 97.54C1564.67 97.54 1567.04 98.2913 1568.79 99.794C1570.54 101.297 1571.41 103.474 1571.41 106.326V114.836C1571.41 115.756 1571.84 116.216 1572.7 116.216H1574.54V121H1570.68C1569.54 121 1568.61 120.724 1567.87 120.172C1567.14 119.62 1566.77 118.884 1566.77 117.964V117.918H1565.89C1565.77 118.286 1565.5 118.777 1565.07 119.39C1564.64 119.973 1563.96 120.494 1563.04 120.954C1562.12 121.414 1560.87 121.644 1559.27 121.644ZM1560.28 116.952C1561.91 116.952 1563.23 116.507 1564.24 115.618C1565.28 114.698 1565.8 113.487 1565.8 111.984V111.524H1559.96C1558.89 111.524 1558.04 111.754 1557.43 112.214C1556.82 112.674 1556.51 113.318 1556.51 114.146C1556.51 114.974 1556.83 115.649 1557.48 116.17C1558.12 116.691 1559.06 116.952 1560.28 116.952ZM1585.86 121C1584.36 121 1583.13 120.54 1582.18 119.62C1581.26 118.669 1580.8 117.412 1580.8 115.848V102.968H1575.09V98.184H1580.8V91.1H1586.59V98.184H1592.85V102.968H1586.59V114.836C1586.59 115.756 1587.02 116.216 1587.88 116.216H1592.3V121H1585.86ZM1606.79 121.368C1605.01 121.368 1603.45 120.969 1602.1 120.172C1600.78 119.344 1599.75 118.209 1599.02 116.768C1598.28 115.327 1597.91 113.671 1597.91 111.8V98.184H1603.71V111.34C1603.71 113.057 1604.12 114.345 1604.95 115.204C1605.81 116.063 1607.02 116.492 1608.58 116.492C1610.36 116.492 1611.74 115.909 1612.72 114.744C1613.71 113.548 1614.2 111.892 1614.2 109.776V98.184H1619.99V121H1614.29V118.01H1613.46C1613.09 118.777 1612.4 119.528 1611.39 120.264C1610.38 121 1608.85 121.368 1606.79 121.368ZM1626.44 121V98.184H1632.15V100.76H1632.97C1633.31 99.84 1633.86 99.1653 1634.63 98.736C1635.43 98.3067 1636.35 98.092 1637.39 98.092H1640.15V103.244H1637.3C1635.83 103.244 1634.62 103.643 1633.66 104.44C1632.71 105.207 1632.24 106.403 1632.24 108.028V121H1626.44ZM1654.27 121.644C1652 121.644 1649.99 121.169 1648.24 120.218C1646.53 119.237 1645.18 117.872 1644.19 116.124C1643.24 114.345 1642.77 112.26 1642.77 109.868V109.316C1642.77 106.924 1643.24 104.854 1644.19 103.106C1645.15 101.327 1646.48 99.9627 1648.2 99.012C1649.91 98.0307 1651.91 97.54 1654.18 97.54C1656.42 97.54 1658.36 98.046 1660.02 99.058C1661.67 100.039 1662.96 101.419 1663.88 103.198C1664.8 104.946 1665.26 106.985 1665.26 109.316V111.294H1648.66C1648.72 112.858 1649.3 114.131 1650.4 115.112C1651.51 116.093 1652.86 116.584 1654.45 116.584C1656.08 116.584 1657.27 116.231 1658.04 115.526C1658.81 114.821 1659.39 114.039 1659.79 113.18L1664.53 115.664C1664.1 116.461 1663.47 117.335 1662.64 118.286C1661.84 119.206 1660.77 120.003 1659.42 120.678C1658.07 121.322 1656.35 121.644 1654.27 121.644ZM1648.7 106.97H1659.37C1659.25 105.651 1658.72 104.593 1657.76 103.796C1656.84 102.999 1655.63 102.6 1654.13 102.6C1652.57 102.6 1651.32 102.999 1650.4 103.796C1649.48 104.593 1648.92 105.651 1648.7 106.97ZM1679.9 121.644C1676.92 121.644 1674.48 121 1672.58 119.712C1670.68 118.424 1669.53 116.584 1669.13 114.192L1674.47 112.812C1674.68 113.885 1675.04 114.729 1675.53 115.342C1676.05 115.955 1676.68 116.4 1677.41 116.676C1678.18 116.921 1679.01 117.044 1679.9 117.044C1681.25 117.044 1682.24 116.814 1682.89 116.354C1683.53 115.863 1683.85 115.265 1683.85 114.56C1683.85 113.855 1683.55 113.318 1682.93 112.95C1682.32 112.551 1681.34 112.229 1679.99 111.984L1678.7 111.754C1677.11 111.447 1675.65 111.033 1674.33 110.512C1673.01 109.96 1671.95 109.209 1671.16 108.258C1670.36 107.307 1669.96 106.081 1669.96 104.578C1669.96 102.309 1670.79 100.576 1672.45 99.38C1674.1 98.1533 1676.28 97.54 1678.98 97.54C1681.52 97.54 1683.64 98.1073 1685.33 99.242C1687.01 100.377 1688.12 101.864 1688.64 103.704L1683.26 105.36C1683.01 104.195 1682.5 103.367 1681.74 102.876C1681 102.385 1680.08 102.14 1678.98 102.14C1677.87 102.14 1677.03 102.339 1676.45 102.738C1675.86 103.106 1675.57 103.627 1675.57 104.302C1675.57 105.038 1675.88 105.59 1676.49 105.958C1677.11 106.295 1677.93 106.556 1678.98 106.74L1680.27 106.97C1681.98 107.277 1683.53 107.691 1684.91 108.212C1686.32 108.703 1687.43 109.423 1688.22 110.374C1689.05 111.294 1689.47 112.551 1689.47 114.146C1689.47 116.538 1688.59 118.393 1686.84 119.712C1685.13 121 1682.81 121.644 1679.9 121.644Z" fill="white"/>
<path d="M1087.24 327.448C1084.43 327.448 1082.19 326.68 1080.52 325.144C1078.86 323.587 1078.03 321.368 1078.03 318.488V313.112C1078.03 310.232 1078.86 308.024 1080.52 306.488C1082.19 304.931 1084.43 304.152 1087.24 304.152C1090.06 304.152 1092.3 304.931 1093.96 306.488C1095.63 308.024 1096.46 310.232 1096.46 313.112V318.488C1096.46 321.368 1095.63 323.587 1093.96 325.144C1092.3 326.68 1090.06 327.448 1087.24 327.448ZM1087.24 323.672C1088.82 323.672 1090.05 323.213 1090.92 322.296C1091.8 321.379 1092.24 320.152 1092.24 318.616V312.984C1092.24 311.448 1091.8 310.221 1090.92 309.304C1090.05 308.387 1088.82 307.928 1087.24 307.928C1085.69 307.928 1084.46 308.387 1083.56 309.304C1082.69 310.221 1082.25 311.448 1082.25 312.984V318.616C1082.25 320.152 1082.69 321.379 1083.56 322.296C1084.46 323.213 1085.69 323.672 1087.24 323.672ZM1100.29 333.4V311.128H1104.26V313.048H1104.84C1105.2 312.429 1105.77 311.885 1106.53 311.416C1107.3 310.925 1108.4 310.68 1109.83 310.68C1111.11 310.68 1112.29 311 1113.38 311.64C1114.47 312.259 1115.34 313.176 1116.01 314.392C1116.67 315.608 1117 317.08 1117 318.808V319.32C1117 321.048 1116.67 322.52 1116.01 323.736C1115.34 324.952 1114.47 325.88 1113.38 326.52C1112.29 327.139 1111.11 327.448 1109.83 327.448C1108.87 327.448 1108.06 327.331 1107.4 327.096C1106.76 326.883 1106.24 326.605 1105.83 326.264C1105.45 325.901 1105.14 325.539 1104.9 325.176H1104.33V333.4H1100.29ZM1108.61 323.928C1109.87 323.928 1110.91 323.533 1111.72 322.744C1112.55 321.933 1112.97 320.76 1112.97 319.224V318.904C1112.97 317.368 1112.55 316.205 1111.72 315.416C1110.89 314.605 1109.85 314.2 1108.61 314.2C1107.38 314.2 1106.34 314.605 1105.51 315.416C1104.68 316.205 1104.26 317.368 1104.26 318.904V319.224C1104.26 320.76 1104.68 321.933 1105.51 322.744C1106.34 323.533 1107.38 323.928 1108.61 323.928ZM1127.93 327.448C1126.35 327.448 1124.96 327.117 1123.74 326.456C1122.55 325.773 1121.61 324.824 1120.92 323.608C1120.26 322.371 1119.93 320.92 1119.93 319.256V318.872C1119.93 317.208 1120.26 315.768 1120.92 314.552C1121.59 313.315 1122.51 312.365 1123.71 311.704C1124.9 311.021 1126.29 310.68 1127.87 310.68C1129.43 310.68 1130.78 311.032 1131.93 311.736C1133.08 312.419 1133.98 313.379 1134.62 314.616C1135.26 315.832 1135.58 317.251 1135.58 318.872V320.248H1124.03C1124.07 321.336 1124.48 322.221 1125.24 322.904C1126.01 323.587 1126.95 323.928 1128.06 323.928C1129.19 323.928 1130.02 323.683 1130.56 323.192C1131.09 322.701 1131.49 322.157 1131.77 321.56L1135.07 323.288C1134.77 323.843 1134.33 324.451 1133.76 325.112C1133.2 325.752 1132.45 326.307 1131.52 326.776C1130.58 327.224 1129.38 327.448 1127.93 327.448ZM1124.06 317.24H1131.48C1131.4 316.323 1131.03 315.587 1130.36 315.032C1129.72 314.477 1128.88 314.2 1127.84 314.2C1126.75 314.2 1125.88 314.477 1125.24 315.032C1124.6 315.587 1124.21 316.323 1124.06 317.24ZM1139.17 327V311.128H1143.14V313.208H1143.71C1143.97 312.653 1144.45 312.131 1145.15 311.64C1145.86 311.128 1146.92 310.872 1148.35 310.872C1149.59 310.872 1150.67 311.16 1151.58 311.736C1152.52 312.291 1153.25 313.069 1153.76 314.072C1154.27 315.053 1154.53 316.205 1154.53 317.528V327H1150.5V317.848C1150.5 316.653 1150.2 315.757 1149.6 315.16C1149.02 314.563 1148.19 314.264 1147.1 314.264C1145.87 314.264 1144.91 314.68 1144.22 315.512C1143.54 316.323 1143.2 317.464 1143.2 318.936V327H1139.17ZM1157.22 327L1163.11 304.6H1170.47L1176.36 327H1172.01L1170.79 322.072H1162.79L1161.58 327H1157.22ZM1163.78 318.168H1169.8L1167.08 307.256H1166.5L1163.78 318.168ZM1179.04 327V304.6H1183.26V327H1179.04ZM1095.27 368.448C1093.73 368.448 1092.34 368.107 1091.08 367.424C1089.84 366.72 1088.85 365.707 1088.1 364.384C1087.38 363.04 1087.01 361.408 1087.01 359.488V354.112C1087.01 351.232 1087.82 349.024 1089.45 347.488C1091.07 345.931 1093.26 345.152 1096.04 345.152C1098.79 345.152 1100.91 345.888 1102.41 347.36C1103.92 348.811 1104.68 350.784 1104.68 353.28V353.408H1100.52V353.152C1100.52 352.363 1100.35 351.648 1100.01 351.008C1099.69 350.368 1099.19 349.867 1098.53 349.504C1097.87 349.12 1097.04 348.928 1096.04 348.928C1094.54 348.928 1093.37 349.387 1092.52 350.304C1091.66 351.221 1091.24 352.469 1091.24 354.048V359.552C1091.24 361.109 1091.66 362.368 1092.52 363.328C1093.37 364.267 1094.57 364.736 1096.1 364.736C1097.64 364.736 1098.76 364.331 1099.46 363.52C1100.17 362.709 1100.52 361.685 1100.52 360.448V360.128H1095.21V356.544H1104.68V368H1100.77V365.856H1100.2C1100.05 366.219 1099.8 366.603 1099.46 367.008C1099.14 367.413 1098.65 367.755 1097.99 368.032C1097.33 368.309 1096.42 368.448 1095.27 368.448ZM1108.71 368V345.6H1117.93C1119.34 345.6 1120.57 345.888 1121.64 346.464C1122.73 347.019 1123.57 347.808 1124.17 348.832C1124.79 349.856 1125.1 351.072 1125.1 352.48V352.928C1125.1 354.315 1124.78 355.531 1124.14 356.576C1123.52 357.6 1122.66 358.4 1121.58 358.976C1120.51 359.531 1119.29 359.808 1117.93 359.808H1112.94V368H1108.71ZM1112.94 355.968H1117.51C1118.52 355.968 1119.33 355.691 1119.94 355.136C1120.56 354.581 1120.87 353.824 1120.87 352.864V352.544C1120.87 351.584 1120.56 350.827 1119.94 350.272C1119.33 349.717 1118.52 349.44 1117.51 349.44H1112.94V355.968ZM1133.15 368V349.44H1126.62V345.6H1143.9V349.44H1137.37V368H1133.15ZM1144.4 361.664V358.016H1153.87V361.664H1144.4ZM1167.88 368V363.456H1156.87V358.72L1164.61 345.6H1171.97V359.808H1175.69V363.456H1171.97V368H1167.88ZM1160.77 359.808H1167.88V348.224H1167.3L1160.77 359.296V359.808Z" fill="white"/>
<path d="M1308.8 327L1314.68 304.6H1322.04L1327.93 327H1323.58L1322.36 322.072H1314.36L1313.15 327H1308.8ZM1315.36 318.168H1321.37L1318.65 307.256H1318.08L1315.36 318.168ZM1338.2 327.448C1336.66 327.448 1335.26 327.128 1334 326.488C1332.77 325.848 1331.79 324.92 1331.06 323.704C1330.34 322.488 1329.97 321.016 1329.97 319.288V318.84C1329.97 317.112 1330.34 315.64 1331.06 314.424C1331.79 313.208 1332.77 312.28 1334 311.64C1335.26 311 1336.66 310.68 1338.2 310.68C1339.71 310.68 1341.01 310.947 1342.1 311.48C1343.19 312.013 1344.06 312.749 1344.72 313.688C1345.41 314.605 1345.86 315.651 1346.07 316.824L1342.16 317.656C1342.08 317.016 1341.89 316.44 1341.59 315.928C1341.29 315.416 1340.86 315.011 1340.31 314.712C1339.78 314.413 1339.1 314.264 1338.29 314.264C1337.48 314.264 1336.75 314.445 1336.08 314.808C1335.44 315.149 1334.93 315.672 1334.55 316.376C1334.19 317.059 1334 317.901 1334 318.904V319.224C1334 320.227 1334.19 321.08 1334.55 321.784C1334.93 322.467 1335.44 322.989 1336.08 323.352C1336.75 323.693 1337.48 323.864 1338.29 323.864C1339.51 323.864 1340.43 323.555 1341.04 322.936C1341.68 322.296 1342.09 321.464 1342.26 320.44L1346.16 321.368C1345.89 322.499 1345.41 323.533 1344.72 324.472C1344.06 325.389 1343.19 326.115 1342.1 326.648C1341.01 327.181 1339.71 327.448 1338.2 327.448ZM1356.95 327.448C1355.41 327.448 1354.01 327.128 1352.75 326.488C1351.52 325.848 1350.54 324.92 1349.81 323.704C1349.09 322.488 1348.72 321.016 1348.72 319.288V318.84C1348.72 317.112 1349.09 315.64 1349.81 314.424C1350.54 313.208 1351.52 312.28 1352.75 311.64C1354.01 311 1355.41 310.68 1356.95 310.68C1358.46 310.68 1359.76 310.947 1360.85 311.48C1361.94 312.013 1362.81 312.749 1363.47 313.688C1364.16 314.605 1364.61 315.651 1364.82 316.824L1360.91 317.656C1360.83 317.016 1360.64 316.44 1360.34 315.928C1360.04 315.416 1359.61 315.011 1359.06 314.712C1358.53 314.413 1357.85 314.264 1357.04 314.264C1356.23 314.264 1355.5 314.445 1354.83 314.808C1354.19 315.149 1353.68 315.672 1353.3 316.376C1352.94 317.059 1352.75 317.901 1352.75 318.904V319.224C1352.75 320.227 1352.94 321.08 1353.3 321.784C1353.68 322.467 1354.19 322.989 1354.83 323.352C1355.5 323.693 1356.23 323.864 1357.04 323.864C1358.26 323.864 1359.18 323.555 1359.79 322.936C1360.43 322.296 1360.84 321.464 1361.01 320.44L1364.91 321.368C1364.64 322.499 1364.16 323.533 1363.47 324.472C1362.81 325.389 1361.94 326.115 1360.85 326.648C1359.76 327.181 1358.46 327.448 1356.95 327.448ZM1375.47 327.448C1373.89 327.448 1372.5 327.117 1371.28 326.456C1370.09 325.773 1369.15 324.824 1368.46 323.608C1367.8 322.371 1367.47 320.92 1367.47 319.256V318.872C1367.47 317.208 1367.8 315.768 1368.46 314.552C1369.13 313.315 1370.05 312.365 1371.25 311.704C1372.44 311.021 1373.83 310.68 1375.41 310.68C1376.97 310.68 1378.32 311.032 1379.47 311.736C1380.62 312.419 1381.52 313.379 1382.16 314.616C1382.8 315.832 1383.12 317.251 1383.12 318.872V320.248H1371.57C1371.61 321.336 1372.02 322.221 1372.78 322.904C1373.55 323.587 1374.49 323.928 1375.6 323.928C1376.73 323.928 1377.56 323.683 1378.1 323.192C1378.63 322.701 1379.04 322.157 1379.31 321.56L1382.61 323.288C1382.31 323.843 1381.87 324.451 1381.3 325.112C1380.74 325.752 1380 326.307 1379.06 326.776C1378.12 327.224 1376.92 327.448 1375.47 327.448ZM1371.6 317.24H1379.02C1378.94 316.323 1378.57 315.587 1377.9 315.032C1377.26 314.477 1376.42 314.2 1375.38 314.2C1374.29 314.2 1373.42 314.477 1372.78 315.032C1372.14 315.587 1371.75 316.323 1371.6 317.24ZM1393.3 327.448C1391.23 327.448 1389.54 327 1388.21 326.104C1386.89 325.208 1386.09 323.928 1385.81 322.264L1389.53 321.304C1389.67 322.051 1389.92 322.637 1390.26 323.064C1390.62 323.491 1391.06 323.8 1391.57 323.992C1392.11 324.163 1392.68 324.248 1393.3 324.248C1394.24 324.248 1394.93 324.088 1395.38 323.768C1395.83 323.427 1396.05 323.011 1396.05 322.52C1396.05 322.029 1395.84 321.656 1395.41 321.4C1394.99 321.123 1394.3 320.899 1393.37 320.728L1392.47 320.568C1391.36 320.355 1390.35 320.067 1389.43 319.704C1388.51 319.32 1387.78 318.797 1387.22 318.136C1386.67 317.475 1386.39 316.621 1386.39 315.576C1386.39 313.997 1386.97 312.792 1388.12 311.96C1389.27 311.107 1390.78 310.68 1392.66 310.68C1394.43 310.68 1395.9 311.075 1397.08 311.864C1398.25 312.653 1399.02 313.688 1399.38 314.968L1395.64 316.12C1395.47 315.309 1395.11 314.733 1394.58 314.392C1394.07 314.051 1393.43 313.88 1392.66 313.88C1391.89 313.88 1391.31 314.019 1390.9 314.296C1390.5 314.552 1390.29 314.915 1390.29 315.384C1390.29 315.896 1390.51 316.28 1390.93 316.536C1391.36 316.771 1391.94 316.952 1392.66 317.08L1393.56 317.24C1394.75 317.453 1395.83 317.741 1396.79 318.104C1397.77 318.445 1398.54 318.947 1399.09 319.608C1399.67 320.248 1399.96 321.123 1399.96 322.232C1399.96 323.896 1399.35 325.187 1398.13 326.104C1396.94 327 1395.33 327.448 1393.3 327.448ZM1410.08 327.448C1408.01 327.448 1406.32 327 1404.99 326.104C1403.67 325.208 1402.87 323.928 1402.59 322.264L1406.31 321.304C1406.46 322.051 1406.7 322.637 1407.04 323.064C1407.41 323.491 1407.84 323.8 1408.35 323.992C1408.89 324.163 1409.46 324.248 1410.08 324.248C1411.02 324.248 1411.71 324.088 1412.16 323.768C1412.61 323.427 1412.83 323.011 1412.83 322.52C1412.83 322.029 1412.62 321.656 1412.19 321.4C1411.77 321.123 1411.09 320.899 1410.15 320.728L1409.25 320.568C1408.14 320.355 1407.13 320.067 1406.21 319.704C1405.29 319.32 1404.56 318.797 1404 318.136C1403.45 317.475 1403.17 316.621 1403.17 315.576C1403.17 313.997 1403.75 312.792 1404.9 311.96C1406.05 311.107 1407.57 310.68 1409.44 310.68C1411.21 310.68 1412.69 311.075 1413.86 311.864C1415.03 312.653 1415.8 313.688 1416.16 314.968L1412.42 316.12C1412.25 315.309 1411.9 314.733 1411.36 314.392C1410.85 314.051 1410.21 313.88 1409.44 313.88C1408.67 313.88 1408.09 314.019 1407.68 314.296C1407.28 314.552 1407.07 314.915 1407.07 315.384C1407.07 315.896 1407.29 316.28 1407.71 316.536C1408.14 316.771 1408.72 316.952 1409.44 317.08L1410.34 317.24C1411.53 317.453 1412.61 317.741 1413.57 318.104C1414.55 318.445 1415.32 318.947 1415.87 319.608C1416.45 320.248 1416.74 321.123 1416.74 322.232C1416.74 323.896 1416.13 325.187 1414.91 326.104C1413.72 327 1412.11 327.448 1410.08 327.448ZM1420.27 327V311.128H1424.3V327H1420.27ZM1422.29 309.272C1421.56 309.272 1420.94 309.037 1420.43 308.568C1419.94 308.099 1419.7 307.48 1419.7 306.712C1419.7 305.944 1419.94 305.325 1420.43 304.856C1420.94 304.387 1421.56 304.152 1422.29 304.152C1423.03 304.152 1423.65 304.387 1424.14 304.856C1424.63 305.325 1424.88 305.944 1424.88 306.712C1424.88 307.48 1424.63 308.099 1424.14 308.568C1423.65 309.037 1423.03 309.272 1422.29 309.272ZM1438.31 327.448C1436.88 327.448 1435.78 327.203 1435.01 326.712C1434.24 326.221 1433.68 325.677 1433.32 325.08H1432.74V327H1428.77V304.6H1432.8V312.952H1433.38C1433.61 312.568 1433.92 312.205 1434.31 311.864C1434.71 311.523 1435.24 311.245 1435.88 311.032C1436.54 310.797 1437.35 310.68 1438.31 310.68C1439.59 310.68 1440.77 311 1441.86 311.64C1442.95 312.259 1443.82 313.176 1444.48 314.392C1445.15 315.608 1445.48 317.08 1445.48 318.808V319.32C1445.48 321.048 1445.15 322.52 1444.48 323.736C1443.82 324.952 1442.95 325.88 1441.86 326.52C1440.77 327.139 1439.59 327.448 1438.31 327.448ZM1437.09 323.928C1438.33 323.928 1439.36 323.533 1440.2 322.744C1441.03 321.933 1441.44 320.76 1441.44 319.224V318.904C1441.44 317.368 1441.03 316.205 1440.2 315.416C1439.39 314.605 1438.35 314.2 1437.09 314.2C1435.85 314.2 1434.82 314.605 1433.99 315.416C1433.16 316.205 1432.74 317.368 1432.74 318.904V319.224C1432.74 320.76 1433.16 321.933 1433.99 322.744C1434.82 323.533 1435.85 323.928 1437.09 323.928ZM1449.18 327V304.6H1453.21V327H1449.18ZM1464.91 327.448C1463.33 327.448 1461.93 327.117 1460.72 326.456C1459.52 325.773 1458.58 324.824 1457.9 323.608C1457.24 322.371 1456.91 320.92 1456.91 319.256V318.872C1456.91 317.208 1457.24 315.768 1457.9 314.552C1458.56 313.315 1459.49 312.365 1460.69 311.704C1461.88 311.021 1463.27 310.68 1464.85 310.68C1466.4 310.68 1467.76 311.032 1468.91 311.736C1470.06 312.419 1470.96 313.379 1471.6 314.616C1472.24 315.832 1472.56 317.251 1472.56 318.872V320.248H1461.01C1461.05 321.336 1461.45 322.221 1462.22 322.904C1462.99 323.587 1463.93 323.928 1465.04 323.928C1466.17 323.928 1467 323.683 1467.53 323.192C1468.07 322.701 1468.47 322.157 1468.75 321.56L1472.05 323.288C1471.75 323.843 1471.31 324.451 1470.73 325.112C1470.18 325.752 1469.43 326.307 1468.49 326.776C1467.56 327.224 1466.36 327.448 1464.91 327.448ZM1461.04 317.24H1468.46C1468.38 316.323 1468 315.587 1467.34 315.032C1466.7 314.477 1465.86 314.2 1464.81 314.2C1463.73 314.2 1462.86 314.477 1462.22 315.032C1461.58 315.587 1461.19 316.323 1461.04 317.24ZM1351.45 368L1357.34 345.6H1364.7L1370.59 368H1366.24L1365.02 363.072H1357.02L1355.8 368H1351.45ZM1358.01 359.168H1364.03L1361.31 348.256H1360.73L1358.01 359.168ZM1379.44 368.256C1378.21 368.256 1377.12 367.979 1376.18 367.424C1375.26 366.848 1374.55 366.059 1374.04 365.056C1373.52 364.053 1373.27 362.901 1373.27 361.6V352.128H1377.3V361.28C1377.3 362.475 1377.59 363.371 1378.16 363.968C1378.76 364.565 1379.6 364.864 1380.69 364.864C1381.93 364.864 1382.89 364.459 1383.57 363.648C1384.26 362.816 1384.6 361.664 1384.6 360.192V352.128H1388.63V368H1384.66V365.92H1384.08C1383.83 366.453 1383.35 366.976 1382.64 367.488C1381.94 368 1380.87 368.256 1379.44 368.256ZM1399.52 368.448C1398.26 368.448 1397.07 368.139 1395.96 367.52C1394.88 366.88 1394 365.952 1393.34 364.736C1392.68 363.52 1392.35 362.048 1392.35 360.32V359.808C1392.35 358.08 1392.68 356.608 1393.34 355.392C1394 354.176 1394.88 353.259 1395.96 352.64C1397.05 352 1398.24 351.68 1399.52 351.68C1400.48 351.68 1401.28 351.797 1401.92 352.032C1402.58 352.245 1403.11 352.523 1403.52 352.864C1403.92 353.205 1404.23 353.568 1404.44 353.952H1405.02V345.6H1409.05V368H1405.08V366.08H1404.51C1404.14 366.677 1403.58 367.221 1402.81 367.712C1402.06 368.203 1400.97 368.448 1399.52 368.448ZM1400.73 364.928C1401.97 364.928 1403 364.533 1403.84 363.744C1404.67 362.933 1405.08 361.76 1405.08 360.224V359.904C1405.08 358.368 1404.67 357.205 1403.84 356.416C1403.02 355.605 1401.99 355.2 1400.73 355.2C1399.49 355.2 1398.46 355.605 1397.63 356.416C1396.8 357.205 1396.38 358.368 1396.38 359.904V360.224C1396.38 361.76 1396.8 362.933 1397.63 363.744C1398.46 364.533 1399.49 364.928 1400.73 364.928ZM1413.52 368V352.128H1417.55V368H1413.52ZM1415.54 350.272C1414.81 350.272 1414.19 350.037 1413.68 349.568C1413.19 349.099 1412.95 348.48 1412.95 347.712C1412.95 346.944 1413.19 346.325 1413.68 345.856C1414.19 345.387 1414.81 345.152 1415.54 345.152C1416.28 345.152 1416.9 345.387 1417.39 345.856C1417.88 346.325 1418.13 346.944 1418.13 347.712C1418.13 348.48 1417.88 349.099 1417.39 349.568C1416.9 350.037 1416.28 350.272 1415.54 350.272ZM1429.57 368.448C1428 368.448 1426.58 368.128 1425.32 367.488C1424.06 366.848 1423.07 365.92 1422.34 364.704C1421.62 363.488 1421.25 362.027 1421.25 360.32V359.808C1421.25 358.101 1421.62 356.64 1422.34 355.424C1423.07 354.208 1424.06 353.28 1425.32 352.64C1426.58 352 1428 351.68 1429.57 351.68C1431.15 351.68 1432.57 352 1433.83 352.64C1435.09 353.28 1436.08 354.208 1436.81 355.424C1437.53 356.64 1437.89 358.101 1437.89 359.808V360.32C1437.89 362.027 1437.53 363.488 1436.81 364.704C1436.08 365.92 1435.09 366.848 1433.83 367.488C1432.57 368.128 1431.15 368.448 1429.57 368.448ZM1429.57 364.864C1430.81 364.864 1431.84 364.469 1432.65 363.68C1433.46 362.869 1433.86 361.717 1433.86 360.224V359.904C1433.86 358.411 1433.46 357.269 1432.65 356.48C1431.86 355.669 1430.83 355.264 1429.57 355.264C1428.34 355.264 1427.31 355.669 1426.5 356.48C1425.69 357.269 1425.29 358.411 1425.29 359.904V360.224C1425.29 361.717 1425.69 362.869 1426.5 363.68C1427.31 364.469 1428.34 364.864 1429.57 364.864Z" fill="white"/>
<path d="M1576.77 327V304.6H1581V323.16H1591.24V327H1576.77ZM1599.17 327.448C1598.04 327.448 1597.03 327.256 1596.13 326.872C1595.23 326.467 1594.52 325.891 1593.99 325.144C1593.47 324.376 1593.22 323.448 1593.22 322.36C1593.22 321.272 1593.47 320.365 1593.99 319.64C1594.52 318.893 1595.25 318.339 1596.16 317.976C1597.1 317.592 1598.17 317.4 1599.36 317.4H1603.71V316.504C1603.71 315.757 1603.48 315.149 1603.01 314.68C1602.54 314.189 1601.79 313.944 1600.77 313.944C1599.77 313.944 1599.02 314.179 1598.53 314.648C1598.04 315.096 1597.72 315.683 1597.57 316.408L1593.86 315.16C1594.11 314.349 1594.52 313.613 1595.07 312.952C1595.65 312.269 1596.41 311.725 1597.35 311.32C1598.31 310.893 1599.47 310.68 1600.83 310.68C1602.93 310.68 1604.58 311.203 1605.79 312.248C1607.01 313.293 1607.62 314.808 1607.62 316.792V322.712C1607.62 323.352 1607.92 323.672 1608.51 323.672H1609.79V327H1607.11C1606.32 327 1605.67 326.808 1605.15 326.424C1604.64 326.04 1604.39 325.528 1604.39 324.888V324.856H1603.78C1603.69 325.112 1603.5 325.453 1603.2 325.88C1602.9 326.285 1602.43 326.648 1601.79 326.968C1601.15 327.288 1600.28 327.448 1599.17 327.448ZM1599.87 324.184C1601.01 324.184 1601.92 323.875 1602.63 323.256C1603.35 322.616 1603.71 321.773 1603.71 320.728V320.408H1599.65C1598.9 320.408 1598.32 320.568 1597.89 320.888C1597.46 321.208 1597.25 321.656 1597.25 322.232C1597.25 322.808 1597.47 323.277 1597.92 323.64C1598.37 324.003 1599.02 324.184 1599.87 324.184ZM1612.74 327V311.128H1616.71V313.208H1617.29C1617.54 312.653 1618.02 312.131 1618.73 311.64C1619.43 311.128 1620.5 310.872 1621.93 310.872C1623.16 310.872 1624.24 311.16 1625.16 311.736C1626.1 312.291 1626.82 313.069 1627.33 314.072C1627.85 315.053 1628.1 316.205 1628.1 317.528V327H1624.07V317.848C1624.07 316.653 1623.77 315.757 1623.17 315.16C1622.6 314.563 1621.77 314.264 1620.68 314.264C1619.44 314.264 1618.48 314.68 1617.8 315.512C1617.12 316.323 1616.77 317.464 1616.77 318.936V327H1612.74ZM1631.69 319.128V318.616C1631.69 316.952 1632.02 315.533 1632.69 314.36C1633.35 313.165 1634.22 312.259 1635.31 311.64C1636.42 311 1637.62 310.68 1638.93 310.68C1640.38 310.68 1641.47 310.936 1642.22 311.448C1642.97 311.96 1643.51 312.493 1643.85 313.048H1644.43V311.128H1648.4V329.816C1648.4 330.904 1648.08 331.768 1647.44 332.408C1646.8 333.069 1645.94 333.4 1644.88 333.4H1634.25V329.88H1643.47C1644.07 329.88 1644.37 329.56 1644.37 328.92V324.792H1643.79C1643.58 325.133 1643.28 325.485 1642.89 325.848C1642.51 326.189 1642 326.477 1641.36 326.712C1640.72 326.947 1639.91 327.064 1638.93 327.064C1637.62 327.064 1636.42 326.755 1635.31 326.136C1634.22 325.496 1633.35 324.589 1632.69 323.416C1632.02 322.221 1631.69 320.792 1631.69 319.128ZM1640.08 323.544C1641.31 323.544 1642.35 323.149 1643.18 322.36C1644.01 321.571 1644.43 320.461 1644.43 319.032V318.712C1644.43 317.261 1644.01 316.152 1643.18 315.384C1642.37 314.595 1641.34 314.2 1640.08 314.2C1638.84 314.2 1637.81 314.595 1636.97 315.384C1636.14 316.152 1635.73 317.261 1635.73 318.712V319.032C1635.73 320.461 1636.14 321.571 1636.97 322.36C1637.81 323.149 1638.84 323.544 1640.08 323.544ZM1658.92 327.256C1657.68 327.256 1656.59 326.979 1655.65 326.424C1654.73 325.848 1654.02 325.059 1653.51 324.056C1653 323.053 1652.74 321.901 1652.74 320.6V311.128H1656.77V320.28C1656.77 321.475 1657.06 322.371 1657.64 322.968C1658.23 323.565 1659.08 323.864 1660.16 323.864C1661.4 323.864 1662.36 323.459 1663.04 322.648C1663.73 321.816 1664.07 320.664 1664.07 319.192V311.128H1668.1V327H1664.13V324.92H1663.56C1663.3 325.453 1662.82 325.976 1662.12 326.488C1661.41 327 1660.35 327.256 1658.92 327.256ZM1677.51 327.448C1676.38 327.448 1675.37 327.256 1674.47 326.872C1673.58 326.467 1672.86 325.891 1672.33 325.144C1671.82 324.376 1671.56 323.448 1671.56 322.36C1671.56 321.272 1671.82 320.365 1672.33 319.64C1672.86 318.893 1673.59 318.339 1674.51 317.976C1675.45 317.592 1676.51 317.4 1677.71 317.4H1682.06V316.504C1682.06 315.757 1681.82 315.149 1681.35 314.68C1680.89 314.189 1680.14 313.944 1679.11 313.944C1678.11 313.944 1677.37 314.179 1676.87 314.648C1676.38 315.096 1676.06 315.683 1675.91 316.408L1672.2 315.16C1672.46 314.349 1672.86 313.613 1673.42 312.952C1673.99 312.269 1674.75 311.725 1675.69 311.32C1676.65 310.893 1677.81 310.68 1679.18 310.68C1681.27 310.68 1682.92 311.203 1684.14 312.248C1685.35 313.293 1685.96 314.808 1685.96 316.792V322.712C1685.96 323.352 1686.26 323.672 1686.86 323.672H1688.14V327H1685.45C1684.66 327 1684.01 326.808 1683.5 326.424C1682.99 326.04 1682.73 325.528 1682.73 324.888V324.856H1682.12C1682.04 325.112 1681.85 325.453 1681.55 325.88C1681.25 326.285 1680.78 326.648 1680.14 326.968C1679.5 327.288 1678.62 327.448 1677.51 327.448ZM1678.22 324.184C1679.35 324.184 1680.27 323.875 1680.97 323.256C1681.7 322.616 1682.06 321.773 1682.06 320.728V320.408H1677.99C1677.25 320.408 1676.66 320.568 1676.23 320.888C1675.81 321.208 1675.59 321.656 1675.59 322.232C1675.59 322.808 1675.82 323.277 1676.27 323.64C1676.71 324.003 1677.37 324.184 1678.22 324.184ZM1690.01 319.128V318.616C1690.01 316.952 1690.34 315.533 1691 314.36C1691.66 313.165 1692.53 312.259 1693.62 311.64C1694.73 311 1695.94 310.68 1697.24 310.68C1698.69 310.68 1699.79 310.936 1700.53 311.448C1701.28 311.96 1701.82 312.493 1702.17 313.048H1702.74V311.128H1706.71V329.816C1706.71 330.904 1706.39 331.768 1705.75 332.408C1705.11 333.069 1704.26 333.4 1703.19 333.4H1692.57V329.88H1701.78C1702.38 329.88 1702.68 329.56 1702.68 328.92V324.792H1702.1C1701.89 325.133 1701.59 325.485 1701.21 325.848C1700.82 326.189 1700.31 326.477 1699.67 326.712C1699.03 326.947 1698.22 327.064 1697.24 327.064C1695.94 327.064 1694.73 326.755 1693.62 326.136C1692.53 325.496 1691.66 324.589 1691 323.416C1690.34 322.221 1690.01 320.792 1690.01 319.128ZM1698.39 323.544C1699.63 323.544 1700.66 323.149 1701.49 322.36C1702.33 321.571 1702.74 320.461 1702.74 319.032V318.712C1702.74 317.261 1702.33 316.152 1701.49 315.384C1700.68 314.595 1699.65 314.2 1698.39 314.2C1697.15 314.2 1696.12 314.595 1695.29 315.384C1694.45 316.152 1694.04 317.261 1694.04 318.712V319.032C1694.04 320.461 1694.45 321.571 1695.29 322.36C1696.12 323.149 1697.15 323.544 1698.39 323.544ZM1718.41 327.448C1716.83 327.448 1715.44 327.117 1714.22 326.456C1713.03 325.773 1712.09 324.824 1711.4 323.608C1710.74 322.371 1710.41 320.92 1710.41 319.256V318.872C1710.41 317.208 1710.74 315.768 1711.4 314.552C1712.07 313.315 1712.99 312.365 1714.19 311.704C1715.38 311.021 1716.77 310.68 1718.35 310.68C1719.91 310.68 1721.26 311.032 1722.41 311.736C1723.56 312.419 1724.46 313.379 1725.1 314.616C1725.74 315.832 1726.06 317.251 1726.06 318.872V320.248H1714.51C1714.55 321.336 1714.96 322.221 1715.72 322.904C1716.49 323.587 1717.43 323.928 1718.54 323.928C1719.67 323.928 1720.5 323.683 1721.04 323.192C1721.57 322.701 1721.98 322.157 1722.25 321.56L1725.55 323.288C1725.25 323.843 1724.81 324.451 1724.24 325.112C1723.68 325.752 1722.94 326.307 1722 326.776C1721.06 327.224 1719.86 327.448 1718.41 327.448ZM1714.54 317.24H1721.96C1721.88 316.323 1721.51 315.587 1720.84 315.032C1720.2 314.477 1719.36 314.2 1718.32 314.2C1717.23 314.2 1716.36 314.477 1715.72 315.032C1715.08 315.587 1714.69 316.323 1714.54 317.24ZM1597.52 368.448C1595.79 368.448 1594.26 368.139 1592.94 367.52C1591.62 366.901 1590.58 366.016 1589.84 364.864C1589.09 363.712 1588.72 362.325 1588.72 360.704V359.808H1592.88V360.704C1592.88 362.048 1593.29 363.061 1594.12 363.744C1594.96 364.405 1596.09 364.736 1597.52 364.736C1598.97 364.736 1600.04 364.448 1600.75 363.872C1601.47 363.296 1601.84 362.56 1601.84 361.664C1601.84 361.045 1601.65 360.544 1601.29 360.16C1600.95 359.776 1600.44 359.467 1599.76 359.232C1599.09 358.976 1598.28 358.741 1597.32 358.528L1596.59 358.368C1595.05 358.027 1593.73 357.6 1592.62 357.088C1591.53 356.555 1590.69 355.861 1590.09 355.008C1589.52 354.155 1589.23 353.045 1589.23 351.68C1589.23 350.315 1589.55 349.152 1590.19 348.192C1590.85 347.211 1591.77 346.464 1592.94 345.952C1594.13 345.419 1595.53 345.152 1597.13 345.152C1598.73 345.152 1600.15 345.429 1601.39 345.984C1602.65 346.517 1603.63 347.328 1604.33 348.416C1605.06 349.483 1605.42 350.827 1605.42 352.448V353.408H1601.26V352.448C1601.26 351.595 1601.09 350.912 1600.75 350.4C1600.43 349.867 1599.96 349.483 1599.34 349.248C1598.72 348.992 1597.99 348.864 1597.13 348.864C1595.85 348.864 1594.9 349.109 1594.28 349.6C1593.69 350.069 1593.39 350.72 1593.39 351.552C1593.39 352.107 1593.53 352.576 1593.8 352.96C1594.1 353.344 1594.54 353.664 1595.12 353.92C1595.69 354.176 1596.43 354.4 1597.32 354.592L1598.06 354.752C1599.66 355.093 1601.05 355.531 1602.22 356.064C1603.41 356.597 1604.34 357.301 1605 358.176C1605.67 359.051 1606 360.171 1606 361.536C1606 362.901 1605.64 364.107 1604.94 365.152C1604.26 366.176 1603.28 366.987 1602 367.584C1600.74 368.16 1599.24 368.448 1597.52 368.448ZM1615.32 368.256C1614.08 368.256 1613 367.979 1612.06 367.424C1611.14 366.848 1610.43 366.059 1609.91 365.056C1609.4 364.053 1609.15 362.901 1609.15 361.6V352.128H1613.18V361.28C1613.18 362.475 1613.47 363.371 1614.04 363.968C1614.64 364.565 1615.48 364.864 1616.57 364.864C1617.81 364.864 1618.77 364.459 1619.45 363.648C1620.13 362.816 1620.47 361.664 1620.47 360.192V352.128H1624.51V368H1620.54V365.92H1619.96C1619.71 366.453 1619.23 366.976 1618.52 367.488C1617.82 368 1616.75 368.256 1615.32 368.256ZM1628.99 374.4V352.128H1632.96V354.048H1633.54C1633.9 353.429 1634.46 352.885 1635.23 352.416C1636 351.925 1637.1 351.68 1638.53 351.68C1639.81 351.68 1640.99 352 1642.08 352.64C1643.17 353.259 1644.04 354.176 1644.7 355.392C1645.37 356.608 1645.7 358.08 1645.7 359.808V360.32C1645.7 362.048 1645.37 363.52 1644.7 364.736C1644.04 365.952 1643.17 366.88 1642.08 367.52C1640.99 368.139 1639.81 368.448 1638.53 368.448C1637.57 368.448 1636.76 368.331 1636.1 368.096C1635.46 367.883 1634.93 367.605 1634.53 367.264C1634.14 366.901 1633.84 366.539 1633.6 366.176H1633.02V374.4H1628.99ZM1637.31 364.928C1638.57 364.928 1639.61 364.533 1640.42 363.744C1641.25 362.933 1641.66 361.76 1641.66 360.224V359.904C1641.66 358.368 1641.25 357.205 1640.42 356.416C1639.58 355.605 1638.55 355.2 1637.31 355.2C1636.08 355.2 1635.04 355.605 1634.21 356.416C1633.38 357.205 1632.96 358.368 1632.96 359.904V360.224C1632.96 361.76 1633.38 362.933 1634.21 363.744C1635.04 364.533 1636.08 364.928 1637.31 364.928ZM1649.4 374.4V352.128H1653.37V354.048H1653.94C1654.31 353.429 1654.87 352.885 1655.64 352.416C1656.41 351.925 1657.51 351.68 1658.94 351.68C1660.22 351.68 1661.4 352 1662.49 352.64C1663.58 353.259 1664.45 354.176 1665.11 355.392C1665.77 356.608 1666.1 358.08 1666.1 359.808V360.32C1666.1 362.048 1665.77 363.52 1665.11 364.736C1664.45 365.952 1663.58 366.88 1662.49 367.52C1661.4 368.139 1660.22 368.448 1658.94 368.448C1657.98 368.448 1657.16 368.331 1656.5 368.096C1655.86 367.883 1655.34 367.605 1654.94 367.264C1654.55 366.901 1654.24 366.539 1654.01 366.176H1653.43V374.4H1649.4ZM1657.72 364.928C1658.98 364.928 1660.01 364.533 1660.82 363.744C1661.66 362.933 1662.07 361.76 1662.07 360.224V359.904C1662.07 358.368 1661.66 357.205 1660.82 356.416C1659.99 355.605 1658.96 355.2 1657.72 355.2C1656.48 355.2 1655.45 355.605 1654.62 356.416C1653.78 357.205 1653.37 358.368 1653.37 359.904V360.224C1653.37 361.76 1653.78 362.933 1654.62 363.744C1655.45 364.533 1656.48 364.928 1657.72 364.928ZM1677.36 368.448C1675.78 368.448 1674.36 368.128 1673.1 367.488C1671.84 366.848 1670.85 365.92 1670.13 364.704C1669.4 363.488 1669.04 362.027 1669.04 360.32V359.808C1669.04 358.101 1669.4 356.64 1670.13 355.424C1670.85 354.208 1671.84 353.28 1673.1 352.64C1674.36 352 1675.78 351.68 1677.36 351.68C1678.94 351.68 1680.35 352 1681.61 352.64C1682.87 353.28 1683.86 354.208 1684.59 355.424C1685.31 356.64 1685.68 358.101 1685.68 359.808V360.32C1685.68 362.027 1685.31 363.488 1684.59 364.704C1683.86 365.92 1682.87 366.848 1681.61 367.488C1680.35 368.128 1678.94 368.448 1677.36 368.448ZM1677.36 364.864C1678.59 364.864 1679.62 364.469 1680.43 363.68C1681.24 362.869 1681.65 361.717 1681.65 360.224V359.904C1681.65 358.411 1681.24 357.269 1680.43 356.48C1679.64 355.669 1678.62 355.264 1677.36 355.264C1676.12 355.264 1675.1 355.669 1674.29 356.48C1673.47 357.269 1673.07 358.411 1673.07 359.904V360.224C1673.07 361.717 1673.47 362.869 1674.29 363.68C1675.1 364.469 1676.12 364.864 1677.36 364.864ZM1689.4 368V352.128H1693.37V353.92H1693.94C1694.18 353.28 1694.56 352.811 1695.1 352.512C1695.65 352.213 1696.29 352.064 1697.02 352.064H1698.94V355.648H1696.95C1695.93 355.648 1695.08 355.925 1694.42 356.48C1693.76 357.013 1693.43 357.845 1693.43 358.976V368H1689.4ZM1708.17 368C1707.12 368 1706.27 367.68 1705.61 367.04C1704.97 366.379 1704.65 365.504 1704.65 364.416V355.456H1700.68V352.128H1704.65V347.2H1708.68V352.128H1713.03V355.456H1708.68V363.712C1708.68 364.352 1708.98 364.672 1709.57 364.672H1712.65V368H1708.17Z" fill="white"/>
<path d="M1799.89 323V318.456H1788.88V313.72L1796.62 300.6H1803.98V314.808H1807.69V318.456H1803.98V323H1799.89ZM1792.78 314.808H1799.89V303.224H1799.31L1792.78 314.296V314.808ZM1809.22 323L1814.98 315L1809.29 307.128H1813.96L1817.57 312.408H1818.15L1821.77 307.128H1826.44L1820.74 315L1826.5 323H1821.77L1818.15 317.656H1817.57L1813.96 323H1809.22ZM1846.08 323.448C1843.3 323.448 1841.11 322.68 1839.49 321.144C1837.86 319.587 1837.05 317.368 1837.05 314.488V309.112C1837.05 306.232 1837.86 304.024 1839.49 302.488C1841.11 300.931 1843.3 300.152 1846.08 300.152C1848.83 300.152 1850.95 300.909 1852.45 302.424C1853.96 303.917 1854.72 305.976 1854.72 308.6V308.792H1850.56V308.472C1850.56 307.149 1850.18 306.061 1849.44 305.208C1848.71 304.355 1847.59 303.928 1846.08 303.928C1844.58 303.928 1843.41 304.387 1842.56 305.304C1841.7 306.221 1841.28 307.469 1841.28 309.048V314.552C1841.28 316.109 1841.7 317.357 1842.56 318.296C1843.41 319.213 1844.58 319.672 1846.08 319.672C1847.59 319.672 1848.71 319.245 1849.44 318.392C1850.18 317.517 1850.56 316.429 1850.56 315.128V314.552H1854.72V315C1854.72 317.624 1853.96 319.693 1852.45 321.208C1850.95 322.701 1848.83 323.448 1846.08 323.448ZM1858.29 323V300.6H1862.32V309.08H1862.89C1863.07 308.739 1863.33 308.397 1863.69 308.056C1864.06 307.715 1864.54 307.437 1865.13 307.224C1865.75 306.989 1866.53 306.872 1867.47 306.872C1868.71 306.872 1869.79 307.16 1870.7 307.736C1871.64 308.291 1872.37 309.069 1872.88 310.072C1873.39 311.053 1873.65 312.205 1873.65 313.528V323H1869.61V313.848C1869.61 312.653 1869.32 311.757 1868.72 311.16C1868.14 310.563 1867.31 310.264 1866.22 310.264C1864.99 310.264 1864.03 310.68 1863.34 311.512C1862.66 312.323 1862.32 313.464 1862.32 314.936V323H1858.29ZM1885.24 323.448C1883.66 323.448 1882.26 323.117 1881.05 322.456C1879.85 321.773 1878.91 320.824 1878.23 319.608C1877.57 318.371 1877.24 316.92 1877.24 315.256V314.872C1877.24 313.208 1877.57 311.768 1878.23 310.552C1878.89 309.315 1879.82 308.365 1881.01 307.704C1882.21 307.021 1883.59 306.68 1885.17 306.68C1886.73 306.68 1888.09 307.032 1889.24 307.736C1890.39 308.419 1891.29 309.379 1891.93 310.616C1892.57 311.832 1892.89 313.251 1892.89 314.872V316.248H1881.33C1881.38 317.336 1881.78 318.221 1882.55 318.904C1883.32 319.587 1884.26 319.928 1885.37 319.928C1886.5 319.928 1887.33 319.683 1887.86 319.192C1888.39 318.701 1888.8 318.157 1889.08 317.56L1892.37 319.288C1892.07 319.843 1891.64 320.451 1891.06 321.112C1890.51 321.752 1889.76 322.307 1888.82 322.776C1887.88 323.224 1886.69 323.448 1885.24 323.448ZM1881.37 313.24H1888.79C1888.7 312.323 1888.33 311.587 1887.67 311.032C1887.03 310.477 1886.19 310.2 1885.14 310.2C1884.05 310.2 1883.19 310.477 1882.55 311.032C1881.91 311.587 1881.51 312.323 1881.37 313.24ZM1901.4 323.448C1900.27 323.448 1899.26 323.256 1898.36 322.872C1897.47 322.467 1896.75 321.891 1896.22 321.144C1895.71 320.376 1895.45 319.448 1895.45 318.36C1895.45 317.272 1895.71 316.365 1896.22 315.64C1896.75 314.893 1897.48 314.339 1898.39 313.976C1899.33 313.592 1900.4 313.4 1901.59 313.4H1905.95V312.504C1905.95 311.757 1905.71 311.149 1905.24 310.68C1904.77 310.189 1904.03 309.944 1903 309.944C1902 309.944 1901.25 310.179 1900.76 310.648C1900.27 311.096 1899.95 311.683 1899.8 312.408L1896.09 311.16C1896.35 310.349 1896.75 309.613 1897.31 308.952C1897.88 308.269 1898.64 307.725 1899.58 307.32C1900.54 306.893 1901.7 306.68 1903.07 306.68C1905.16 306.68 1906.81 307.203 1908.03 308.248C1909.24 309.293 1909.85 310.808 1909.85 312.792V318.712C1909.85 319.352 1910.15 319.672 1910.75 319.672H1912.03V323H1909.34C1908.55 323 1907.9 322.808 1907.39 322.424C1906.87 322.04 1906.62 321.528 1906.62 320.888V320.856H1906.01C1905.93 321.112 1905.73 321.453 1905.43 321.88C1905.14 322.285 1904.67 322.648 1904.03 322.968C1903.39 323.288 1902.51 323.448 1901.4 323.448ZM1902.11 320.184C1903.24 320.184 1904.15 319.875 1904.86 319.256C1905.58 318.616 1905.95 317.773 1905.95 316.728V316.408H1901.88C1901.14 316.408 1900.55 316.568 1900.12 316.888C1899.7 317.208 1899.48 317.656 1899.48 318.232C1899.48 318.808 1899.71 319.277 1900.15 319.64C1900.6 320.003 1901.25 320.184 1902.11 320.184ZM1914.97 329.4V307.128H1918.94V309.048H1919.52C1919.88 308.429 1920.45 307.885 1921.21 307.416C1921.98 306.925 1923.08 306.68 1924.51 306.68C1925.79 306.68 1926.97 307 1928.06 307.64C1929.15 308.259 1930.03 309.176 1930.69 310.392C1931.35 311.608 1931.68 313.08 1931.68 314.808V315.32C1931.68 317.048 1931.35 318.52 1930.69 319.736C1930.03 320.952 1929.15 321.88 1928.06 322.52C1926.97 323.139 1925.79 323.448 1924.51 323.448C1923.55 323.448 1922.74 323.331 1922.08 323.096C1921.44 322.883 1920.92 322.605 1920.51 322.264C1920.13 321.901 1919.82 321.539 1919.58 321.176H1919.01V329.4H1914.97ZM1923.29 319.928C1924.55 319.928 1925.59 319.533 1926.4 318.744C1927.23 317.933 1927.65 316.76 1927.65 315.224V314.904C1927.65 313.368 1927.23 312.205 1926.4 311.416C1925.57 310.605 1924.53 310.2 1923.29 310.2C1922.06 310.2 1921.02 310.605 1920.19 311.416C1919.36 312.205 1918.94 313.368 1918.94 314.904V315.224C1918.94 316.76 1919.36 317.933 1920.19 318.744C1921.02 319.533 1922.06 319.928 1923.29 319.928ZM1942.61 323.448C1941.03 323.448 1939.64 323.117 1938.42 322.456C1937.23 321.773 1936.29 320.824 1935.6 319.608C1934.94 318.371 1934.61 316.92 1934.61 315.256V314.872C1934.61 313.208 1934.94 311.768 1935.6 310.552C1936.27 309.315 1937.19 308.365 1938.39 307.704C1939.58 307.021 1940.97 306.68 1942.55 306.68C1944.11 306.68 1945.46 307.032 1946.61 307.736C1947.76 308.419 1948.66 309.379 1949.3 310.616C1949.94 311.832 1950.26 313.251 1950.26 314.872V316.248H1938.71C1938.75 317.336 1939.16 318.221 1939.92 318.904C1940.69 319.587 1941.63 319.928 1942.74 319.928C1943.87 319.928 1944.7 319.683 1945.24 319.192C1945.77 318.701 1946.18 318.157 1946.45 317.56L1949.75 319.288C1949.45 319.843 1949.01 320.451 1948.44 321.112C1947.88 321.752 1947.14 322.307 1946.2 322.776C1945.26 323.224 1944.06 323.448 1942.61 323.448ZM1938.74 313.24H1946.16C1946.08 312.323 1945.71 311.587 1945.04 311.032C1944.4 310.477 1943.56 310.2 1942.52 310.2C1941.43 310.2 1940.56 310.477 1939.92 311.032C1939.28 311.587 1938.89 312.323 1938.74 313.24ZM1953.85 323V307.128H1957.82V308.92H1958.39C1958.63 308.28 1959.01 307.811 1959.55 307.512C1960.1 307.213 1960.74 307.064 1961.47 307.064H1963.39V310.648H1961.4C1960.38 310.648 1959.53 310.925 1958.87 311.48C1958.21 312.013 1957.88 312.845 1957.88 313.976V323H1953.85ZM1980.74 323C1979.7 323 1978.84 322.68 1978.18 322.04C1977.54 321.379 1977.22 320.504 1977.22 319.416V310.456H1973.25V307.128H1977.22V302.2H1981.25V307.128H1985.61V310.456H1981.25V318.712C1981.25 319.352 1981.55 319.672 1982.15 319.672H1985.22V323H1980.74ZM1989.26 323V300.6H1993.29V309.08H1993.86C1994.03 308.739 1994.3 308.397 1994.66 308.056C1995.03 307.715 1995.51 307.437 1996.1 307.224C1996.72 306.989 1997.5 306.872 1998.44 306.872C1999.68 306.872 2000.75 307.16 2001.67 307.736C2002.61 308.291 2003.34 309.069 2003.85 310.072C2004.36 311.053 2004.62 312.205 2004.62 313.528V323H2000.58V313.848C2000.58 312.653 2000.28 311.757 1999.69 311.16C1999.11 310.563 1998.28 310.264 1997.19 310.264C1995.95 310.264 1994.99 310.68 1994.31 311.512C1993.63 312.323 1993.29 313.464 1993.29 314.936V323H1989.26ZM2013.9 323.448C2012.77 323.448 2011.76 323.256 2010.86 322.872C2009.97 322.467 2009.25 321.891 2008.72 321.144C2008.21 320.376 2007.95 319.448 2007.95 318.36C2007.95 317.272 2008.21 316.365 2008.72 315.64C2009.25 314.893 2009.98 314.339 2010.89 313.976C2011.83 313.592 2012.9 313.4 2014.09 313.4H2018.45V312.504C2018.45 311.757 2018.21 311.149 2017.74 310.68C2017.27 310.189 2016.53 309.944 2015.5 309.944C2014.5 309.944 2013.75 310.179 2013.26 310.648C2012.77 311.096 2012.45 311.683 2012.3 312.408L2008.59 311.16C2008.85 310.349 2009.25 309.613 2009.81 308.952C2010.38 308.269 2011.14 307.725 2012.08 307.32C2013.04 306.893 2014.2 306.68 2015.57 306.68C2017.66 306.68 2019.31 307.203 2020.53 308.248C2021.74 309.293 2022.35 310.808 2022.35 312.792V318.712C2022.35 319.352 2022.65 319.672 2023.25 319.672H2024.53V323H2021.84C2021.05 323 2020.4 322.808 2019.89 322.424C2019.37 322.04 2019.12 321.528 2019.12 320.888V320.856H2018.51C2018.43 321.112 2018.23 321.453 2017.93 321.88C2017.64 322.285 2017.17 322.648 2016.53 322.968C2015.89 323.288 2015.01 323.448 2013.9 323.448ZM2014.61 320.184C2015.74 320.184 2016.65 319.875 2017.36 319.256C2018.08 318.616 2018.45 317.773 2018.45 316.728V316.408H2014.38C2013.64 316.408 2013.05 316.568 2012.62 316.888C2012.2 317.208 2011.98 317.656 2011.98 318.232C2011.98 318.808 2012.21 319.277 2012.65 319.64C2013.1 320.003 2013.75 320.184 2014.61 320.184ZM2027.47 323V307.128H2031.44V309.208H2032.02C2032.27 308.653 2032.75 308.131 2033.46 307.64C2034.16 307.128 2035.23 306.872 2036.66 306.872C2037.9 306.872 2038.97 307.16 2039.89 307.736C2040.83 308.291 2041.55 309.069 2042.07 310.072C2042.58 311.053 2042.83 312.205 2042.83 313.528V323H2038.8V313.848C2038.8 312.653 2038.5 311.757 2037.91 311.16C2037.33 310.563 2036.5 310.264 2035.41 310.264C2034.17 310.264 2033.21 310.68 2032.53 311.512C2031.85 312.323 2031.51 313.464 2031.51 314.936V323H2027.47ZM1831.29 364.448C1829.75 364.448 1828.36 364.128 1827.1 363.488C1825.86 362.848 1824.88 361.92 1824.15 360.704C1823.43 359.488 1823.07 358.016 1823.07 356.288V355.84C1823.07 354.112 1823.43 352.64 1824.15 351.424C1824.88 350.208 1825.86 349.28 1827.1 348.64C1828.36 348 1829.75 347.68 1831.29 347.68C1832.8 347.68 1834.11 347.947 1835.19 348.48C1836.28 349.013 1837.16 349.749 1837.82 350.688C1838.5 351.605 1838.95 352.651 1839.16 353.824L1835.26 354.656C1835.17 354.016 1834.98 353.44 1834.68 352.928C1834.38 352.416 1833.96 352.011 1833.4 351.712C1832.87 351.413 1832.2 351.264 1831.39 351.264C1830.58 351.264 1829.84 351.445 1829.18 351.808C1828.54 352.149 1828.03 352.672 1827.64 353.376C1827.28 354.059 1827.1 354.901 1827.1 355.904V356.224C1827.1 357.227 1827.28 358.08 1827.64 358.784C1828.03 359.467 1828.54 359.989 1829.18 360.352C1829.84 360.693 1830.58 360.864 1831.39 360.864C1832.6 360.864 1833.52 360.555 1834.14 359.936C1834.78 359.296 1835.18 358.464 1835.35 357.44L1839.26 358.368C1838.98 359.499 1838.5 360.533 1837.82 361.472C1837.16 362.389 1836.28 363.115 1835.19 363.648C1834.11 364.181 1832.8 364.448 1831.29 364.448ZM1850.14 364.448C1848.56 364.448 1847.14 364.128 1845.88 363.488C1844.62 362.848 1843.63 361.92 1842.9 360.704C1842.18 359.488 1841.82 358.027 1841.82 356.32V355.808C1841.82 354.101 1842.18 352.64 1842.9 351.424C1843.63 350.208 1844.62 349.28 1845.88 348.64C1847.14 348 1848.56 347.68 1850.14 347.68C1851.71 347.68 1853.13 348 1854.39 348.64C1855.65 349.28 1856.64 350.208 1857.37 351.424C1858.09 352.64 1858.46 354.101 1858.46 355.808V356.32C1858.46 358.027 1858.09 359.488 1857.37 360.704C1856.64 361.92 1855.65 362.848 1854.39 363.488C1853.13 364.128 1851.71 364.448 1850.14 364.448ZM1850.14 360.864C1851.37 360.864 1852.4 360.469 1853.21 359.68C1854.02 358.869 1854.42 357.717 1854.42 356.224V355.904C1854.42 354.411 1854.02 353.269 1853.21 352.48C1852.42 351.669 1851.39 351.264 1850.14 351.264C1848.9 351.264 1847.87 351.669 1847.06 352.48C1846.25 353.269 1845.85 354.411 1845.85 355.904V356.224C1845.85 357.717 1846.25 358.869 1847.06 359.68C1847.87 360.469 1848.9 360.864 1850.14 360.864ZM1862.18 364V348.128H1866.15V349.856H1866.72C1867 349.323 1867.46 348.864 1868.1 348.48C1868.74 348.075 1869.58 347.872 1870.63 347.872C1871.76 347.872 1872.66 348.096 1873.35 348.544C1874.03 348.971 1874.55 349.536 1874.91 350.24H1875.49C1875.85 349.557 1876.36 348.992 1877.03 348.544C1877.69 348.096 1878.63 347.872 1879.84 347.872C1880.82 347.872 1881.71 348.085 1882.5 348.512C1883.31 348.917 1883.95 349.547 1884.42 350.4C1884.91 351.232 1885.15 352.288 1885.15 353.568V364H1881.12V353.856C1881.12 352.981 1880.9 352.331 1880.45 351.904C1880 351.456 1879.37 351.232 1878.56 351.232C1877.64 351.232 1876.93 351.531 1876.42 352.128C1875.93 352.704 1875.68 353.536 1875.68 354.624V364H1871.65V353.856C1871.65 352.981 1871.43 352.331 1870.98 351.904C1870.53 351.456 1869.9 351.232 1869.09 351.232C1868.17 351.232 1867.46 351.531 1866.95 352.128C1866.45 352.704 1866.21 353.536 1866.21 354.624V364H1862.18ZM1889.49 370.4V348.128H1893.46V350.048H1894.03C1894.4 349.429 1894.96 348.885 1895.73 348.416C1896.5 347.925 1897.6 347.68 1899.03 347.68C1900.31 347.68 1901.49 348 1902.58 348.64C1903.67 349.259 1904.54 350.176 1905.2 351.392C1905.86 352.608 1906.19 354.08 1906.19 355.808V356.32C1906.19 358.048 1905.86 359.52 1905.2 360.736C1904.54 361.952 1903.67 362.88 1902.58 363.52C1901.49 364.139 1900.31 364.448 1899.03 364.448C1898.07 364.448 1897.26 364.331 1896.59 364.096C1895.95 363.883 1895.43 363.605 1895.03 363.264C1894.64 362.901 1894.33 362.539 1894.1 362.176H1893.52V370.4H1889.49ZM1897.81 360.928C1899.07 360.928 1900.1 360.533 1900.91 359.744C1901.75 358.933 1902.16 357.76 1902.16 356.224V355.904C1902.16 354.368 1901.75 353.205 1900.91 352.416C1900.08 351.605 1899.05 351.2 1897.81 351.2C1896.57 351.2 1895.54 351.605 1894.71 352.416C1893.87 353.205 1893.46 354.368 1893.46 355.904V356.224C1893.46 357.76 1893.87 358.933 1894.71 359.744C1895.54 360.533 1896.57 360.928 1897.81 360.928ZM1917.13 364.448C1915.55 364.448 1914.15 364.117 1912.94 363.456C1911.74 362.773 1910.8 361.824 1910.12 360.608C1909.46 359.371 1909.13 357.92 1909.13 356.256V355.872C1909.13 354.208 1909.46 352.768 1910.12 351.552C1910.78 350.315 1911.71 349.365 1912.9 348.704C1914.1 348.021 1915.49 347.68 1917.06 347.68C1918.62 347.68 1919.98 348.032 1921.13 348.736C1922.28 349.419 1923.18 350.379 1923.82 351.616C1924.46 352.832 1924.78 354.251 1924.78 355.872V357.248H1913.22C1913.27 358.336 1913.67 359.221 1914.44 359.904C1915.21 360.587 1916.15 360.928 1917.26 360.928C1918.39 360.928 1919.22 360.683 1919.75 360.192C1920.29 359.701 1920.69 359.157 1920.97 358.56L1924.26 360.288C1923.97 360.843 1923.53 361.451 1922.95 362.112C1922.4 362.752 1921.65 363.307 1920.71 363.776C1919.77 364.224 1918.58 364.448 1917.13 364.448ZM1913.26 354.24H1920.68C1920.59 353.323 1920.22 352.587 1919.56 352.032C1918.92 351.477 1918.08 351.2 1917.03 351.2C1915.94 351.2 1915.08 351.477 1914.44 352.032C1913.8 352.587 1913.41 353.323 1913.26 354.24ZM1933.91 364C1932.87 364 1932.02 363.68 1931.35 363.04C1930.71 362.379 1930.39 361.504 1930.39 360.416V351.456H1926.43V348.128H1930.39V343.2H1934.43V348.128H1938.78V351.456H1934.43V359.712C1934.43 360.352 1934.72 360.672 1935.32 360.672H1938.39V364H1933.91ZM1942.43 364V348.128H1946.46V364H1942.43ZM1944.44 346.272C1943.72 346.272 1943.1 346.037 1942.59 345.568C1942.1 345.099 1941.85 344.48 1941.85 343.712C1941.85 342.944 1942.1 342.325 1942.59 341.856C1943.1 341.387 1943.72 341.152 1944.44 341.152C1945.19 341.152 1945.81 341.387 1946.3 341.856C1946.79 342.325 1947.04 342.944 1947.04 343.712C1947.04 344.48 1946.79 345.099 1946.3 345.568C1945.81 346.037 1945.19 346.272 1944.44 346.272ZM1957.01 364C1955.96 364 1955.11 363.68 1954.45 363.04C1953.81 362.379 1953.49 361.504 1953.49 360.416V351.456H1949.52V348.128H1953.49V343.2H1957.52V348.128H1961.87V351.456H1957.52V359.712C1957.52 360.352 1957.82 360.672 1958.42 360.672H1961.49V364H1957.01ZM1972.51 364.448C1970.93 364.448 1969.51 364.128 1968.25 363.488C1967 362.848 1966 361.92 1965.28 360.704C1964.55 359.488 1964.19 358.027 1964.19 356.32V355.808C1964.19 354.101 1964.55 352.64 1965.28 351.424C1966 350.208 1967 349.28 1968.25 348.64C1969.51 348 1970.93 347.68 1972.51 347.68C1974.09 347.68 1975.51 348 1976.77 348.64C1978.03 349.28 1979.02 350.208 1979.74 351.424C1980.47 352.64 1980.83 354.101 1980.83 355.808V356.32C1980.83 358.027 1980.47 359.488 1979.74 360.704C1979.02 361.92 1978.03 362.848 1976.77 363.488C1975.51 364.128 1974.09 364.448 1972.51 364.448ZM1972.51 360.864C1973.75 360.864 1974.77 360.469 1975.58 359.68C1976.39 358.869 1976.8 357.717 1976.8 356.224V355.904C1976.8 354.411 1976.39 353.269 1975.58 352.48C1974.79 351.669 1973.77 351.264 1972.51 351.264C1971.27 351.264 1970.25 351.669 1969.44 352.48C1968.63 353.269 1968.22 354.411 1968.22 355.904V356.224C1968.22 357.717 1968.63 358.869 1969.44 359.68C1970.25 360.469 1971.27 360.864 1972.51 360.864ZM1984.55 364V348.128H1988.52V349.92H1989.1C1989.33 349.28 1989.72 348.811 1990.25 348.512C1990.8 348.213 1991.44 348.064 1992.17 348.064H1994.09V351.648H1992.1C1991.08 351.648 1990.24 351.925 1989.58 352.48C1988.92 353.013 1988.58 353.845 1988.58 354.976V364H1984.55ZM2003.46 364.448C2001.39 364.448 1999.69 364 1998.37 363.104C1997.05 362.208 1996.25 360.928 1995.97 359.264L1999.68 358.304C1999.83 359.051 2000.08 359.637 2000.42 360.064C2000.78 360.491 2001.22 360.8 2001.73 360.992C2002.26 361.163 2002.84 361.248 2003.46 361.248C2004.4 361.248 2005.09 361.088 2005.54 360.768C2005.99 360.427 2006.21 360.011 2006.21 359.52C2006.21 359.029 2006 358.656 2005.57 358.4C2005.14 358.123 2004.46 357.899 2003.52 357.728L2002.62 357.568C2001.52 357.355 2000.5 357.067 1999.59 356.704C1998.67 356.32 1997.93 355.797 1997.38 355.136C1996.82 354.475 1996.55 353.621 1996.55 352.576C1996.55 350.997 1997.12 349.792 1998.27 348.96C1999.43 348.107 2000.94 347.68 2002.82 347.68C2004.59 347.68 2006.06 348.075 2007.23 348.864C2008.41 349.653 2009.17 350.688 2009.54 351.968L2005.79 353.12C2005.62 352.309 2005.27 351.733 2004.74 351.392C2004.23 351.051 2003.59 350.88 2002.82 350.88C2002.05 350.88 2001.46 351.019 2001.06 351.296C2000.65 351.552 2000.45 351.915 2000.45 352.384C2000.45 352.896 2000.66 353.28 2001.09 353.536C2001.52 353.771 2002.09 353.952 2002.82 354.08L2003.71 354.24C2004.91 354.453 2005.99 354.741 2006.95 355.104C2007.93 355.445 2008.69 355.947 2009.25 356.608C2009.83 357.248 2010.11 358.123 2010.11 359.232C2010.11 360.896 2009.51 362.187 2008.29 363.104C2007.09 364 2005.48 364.448 2003.46 364.448Z" fill="white"/>
<path d="M1895.97 226.799C1895.97 231.793 1899.83 235.809 1904.57 235.809H1914.25C1918.37 235.809 1921.72 232.308 1921.72 227.931C1921.72 223.246 1919.66 221.547 1916.62 220.465L1901.12 215.059C1898.08 213.978 1896.02 212.33 1896.02 207.593C1896.02 203.268 1899.37 199.715 1903.49 199.715H1913.17C1917.91 199.715 1921.77 203.731 1921.77 208.726" stroke="white" stroke-width="12" stroke-linecap="round" stroke-linejoin="round"/>
<path d="M1908.84 194.617V240.958" stroke="white" stroke-width="15" stroke-linecap="round" stroke-linejoin="round"/>
<path d="M1960.33 217.788C1960.33 246.21 1937.27 269.278 1908.84 269.278C1880.42 269.278 1857.35 246.21 1857.35 217.788C1857.35 189.365 1880.42 166.298 1908.84 166.298" stroke="white" stroke-width="15" stroke-linecap="round" stroke-linejoin="round"/>
<path d="M1934.59 171.447V192.043H1955.18" stroke="white" stroke-width="12" stroke-linecap="round" stroke-linejoin="round"/>
<path d="M1960.33 166.298L1934.59 192.043" stroke="white" stroke-width="12" stroke-linecap="round" stroke-linejoin="round"/>
<g clip-path="url(#clip1_102_279)">
<path d="M1702.24 262.069L1676.75 197.964C1676.35 196.991 1675.67 196.155 1674.8 195.561C1673.93 194.966 1672.91 194.638 1671.86 194.617H1666.71C1665.66 194.638 1664.63 194.966 1663.76 195.561C1662.89 196.155 1662.22 196.991 1661.82 197.964L1649.46 229.116C1644.13 226.156 1639.28 222.426 1635.04 218.045C1643.8 207.747 1650.23 195.39 1651 184.319H1656.15C1657.42 184.343 1658.66 183.917 1659.65 183.116C1660.64 182.315 1661.32 181.192 1661.56 179.943C1661.67 179.205 1661.62 178.451 1661.41 177.735C1661.21 177.018 1660.84 176.355 1660.35 175.791C1659.86 175.228 1659.26 174.778 1658.58 174.473C1657.9 174.167 1657.16 174.013 1656.41 174.021H1634.53V166.555C1634.55 165.283 1634.12 164.044 1633.32 163.055C1632.52 162.066 1631.4 161.391 1630.15 161.149C1629.41 161.037 1628.66 161.087 1627.94 161.295C1627.23 161.503 1626.56 161.864 1626 162.354C1625.44 162.844 1624.99 163.45 1624.68 164.131C1624.37 164.812 1624.22 165.552 1624.23 166.298V174.021H1605.18C1603.91 173.998 1602.67 174.424 1601.68 175.225C1600.69 176.025 1600.01 177.149 1599.77 178.398C1599.66 179.136 1599.71 179.89 1599.92 180.606C1600.13 181.323 1600.49 181.986 1600.98 182.549C1601.47 183.113 1602.07 183.563 1602.75 183.868C1603.43 184.174 1604.17 184.328 1604.92 184.319H1640.71C1639.93 192.043 1634.78 201.569 1628.09 210.322C1624.99 206.361 1622.23 202.14 1619.85 197.707C1619.37 196.652 1618.55 195.781 1617.53 195.225C1616.51 194.668 1615.34 194.455 1614.19 194.617C1613.4 194.766 1612.65 195.099 1612.01 195.589C1611.37 196.079 1610.85 196.713 1610.5 197.44C1610.15 198.166 1609.97 198.965 1609.99 199.772C1610 200.578 1610.21 201.37 1610.58 202.083C1613.59 207.727 1617.12 213.072 1621.14 218.045C1615.96 223.386 1609.85 227.747 1603.12 230.918C1601.99 231.409 1601.06 232.252 1600.46 233.32C1599.85 234.388 1599.61 235.623 1599.77 236.839C1600.01 238.02 1600.66 239.078 1601.6 239.831C1602.54 240.584 1603.72 240.983 1604.92 240.958L1606.98 240.443C1614.91 236.863 1622.07 231.794 1628.09 225.511C1633.23 230.75 1639.13 235.178 1645.6 238.641L1636.33 262.069C1635.99 262.846 1635.85 263.695 1635.92 264.54C1635.98 265.385 1636.26 266.201 1636.72 266.914C1637.18 267.627 1637.8 268.216 1638.54 268.628C1639.28 269.041 1640.12 269.264 1640.96 269.278C1642.01 269.226 1643.02 268.886 1643.88 268.295C1644.74 267.704 1645.43 266.886 1645.85 265.931L1655.9 240.958H1682.67L1692.71 265.931C1693.14 266.886 1693.82 267.704 1694.68 268.295C1695.55 268.886 1696.56 269.226 1697.6 269.278C1698.45 269.264 1699.28 269.041 1700.02 268.628C1700.76 268.216 1701.39 267.627 1701.85 266.914C1702.31 266.201 1702.58 265.385 1702.65 264.54C1702.72 263.695 1702.58 262.846 1702.24 262.069ZM1660.01 230.66L1669.28 207.232L1678.55 230.66H1660.01Z" fill="white"/>
</g>
<path d="M1394.48 258.98C1387.56 258.963 1380.73 257.396 1374.49 254.393C1368.25 251.39 1362.77 247.028 1358.44 241.628C1357.58 240.562 1357.18 239.199 1357.32 237.838C1357.47 236.476 1358.15 235.228 1359.21 234.367C1360.28 233.507 1361.64 233.105 1363 233.25C1364.36 233.395 1365.61 234.075 1366.47 235.14C1369.85 239.349 1374.13 242.747 1378.99 245.081C1383.86 247.416 1389.19 248.628 1394.58 248.628C1399.98 248.628 1405.31 247.416 1410.17 245.081C1415.04 242.747 1419.32 239.349 1422.7 235.14C1423.62 234.335 1424.8 233.884 1426.02 233.868C1427.24 233.852 1428.43 234.272 1429.37 235.053C1430.31 235.833 1430.95 236.923 1431.16 238.128C1431.37 239.333 1431.14 240.573 1430.52 241.628C1426.19 247.028 1420.71 251.39 1414.47 254.393C1408.23 257.396 1401.4 258.963 1394.48 258.98Z" fill="white"/>
<path d="M1394.48 166.298C1387.65 166.298 1381.1 169.01 1376.28 173.838C1371.45 178.667 1368.74 185.215 1368.74 192.043V212.639C1368.74 219.467 1371.45 226.015 1376.28 230.843C1381.1 235.671 1387.65 238.384 1394.48 238.384C1401.31 238.384 1407.86 235.671 1412.69 230.843C1417.51 226.015 1420.23 219.467 1420.23 212.639V192.043C1420.23 185.215 1417.51 178.667 1412.69 173.838C1407.86 169.01 1401.31 166.298 1394.48 166.298Z" fill="white"/>
<path d="M1394.48 269.278C1393.11 269.278 1391.81 268.735 1390.84 267.769C1389.87 266.804 1389.33 265.494 1389.33 264.129V253.831C1389.33 252.465 1389.87 251.155 1390.84 250.19C1391.81 249.224 1393.11 248.682 1394.48 248.682C1395.85 248.682 1397.16 249.224 1398.12 250.19C1399.09 251.155 1399.63 252.465 1399.63 253.831V264.129C1399.63 265.494 1399.09 266.804 1398.12 267.769C1397.16 268.735 1395.85 269.278 1394.48 269.278Z" fill="white"/>
<g clip-path="url(#clip2_102_279)">
<path d="M1189.84 206.569C1191.22 202.408 1191.7 198 1191.24 193.639C1190.78 189.279 1189.4 185.066 1187.18 181.283C1183.9 175.565 1178.88 171.037 1172.86 168.354C1166.83 165.67 1160.11 164.969 1153.66 166.351C1150 162.276 1145.33 159.236 1140.12 157.538C1134.91 155.84 1129.35 155.542 1123.98 156.675C1118.62 157.808 1113.65 160.332 1109.58 163.993C1105.5 167.654 1102.46 172.323 1100.76 177.532C1096.46 178.413 1092.4 180.201 1088.85 182.776C1085.3 185.351 1082.34 188.654 1080.17 192.464C1076.85 198.173 1075.43 204.79 1076.12 211.358C1076.81 217.927 1079.56 224.107 1084 229.004C1082.61 233.163 1082.13 237.571 1082.58 241.931C1083.03 246.292 1084.41 250.505 1086.63 254.289C1089.92 260.01 1094.94 264.538 1100.96 267.222C1106.99 269.906 1113.72 270.606 1120.17 269.222C1123.08 272.5 1126.66 275.119 1130.66 276.904C1134.66 278.689 1139 279.6 1143.38 279.576C1149.99 279.582 1156.43 277.487 1161.78 273.595C1167.12 269.703 1171.08 264.213 1173.1 257.92C1177.4 257.038 1181.46 255.249 1185.01 252.674C1188.56 250.099 1191.52 246.797 1193.69 242.987C1196.97 237.287 1198.36 230.695 1197.67 224.154C1196.98 217.613 1194.24 211.457 1189.84 206.569ZM1143.38 271.488C1137.97 271.496 1132.73 269.599 1128.57 266.129L1129.3 265.715L1153.91 251.513C1154.52 251.153 1155.03 250.641 1155.38 250.026C1155.74 249.411 1155.93 248.714 1155.93 248.005V213.316L1166.33 219.334C1166.38 219.36 1166.43 219.397 1166.46 219.444C1166.5 219.49 1166.52 219.544 1166.53 219.601V248.346C1166.51 254.48 1164.07 260.358 1159.73 264.695C1155.4 269.032 1149.52 271.475 1143.38 271.488ZM1093.64 250.246C1090.93 245.558 1089.95 240.064 1090.89 234.728L1091.62 235.167L1116.25 249.369C1116.86 249.727 1117.55 249.915 1118.26 249.915C1118.96 249.915 1119.66 249.727 1120.27 249.369L1150.35 232.025V244.034C1150.35 244.096 1150.33 244.157 1150.3 244.212C1150.27 244.267 1150.23 244.314 1150.18 244.351L1125.26 258.723C1119.94 261.787 1113.63 262.615 1107.7 261.026C1101.77 259.436 1096.71 255.559 1093.64 250.246ZM1087.16 196.654C1089.9 191.937 1094.21 188.338 1099.34 186.496V215.728C1099.33 216.434 1099.51 217.13 1099.86 217.743C1100.22 218.356 1100.73 218.863 1101.34 219.211L1131.28 236.483L1120.88 242.499C1120.82 242.529 1120.76 242.545 1120.69 242.545C1120.63 242.545 1120.57 242.529 1120.51 242.499L1095.64 228.152C1090.33 225.075 1086.46 220.02 1084.87 214.093C1083.28 208.167 1084.11 201.853 1087.16 196.533V196.654ZM1172.62 216.508L1142.58 199.066L1152.96 193.073C1153.01 193.043 1153.08 193.027 1153.14 193.027C1153.2 193.027 1153.27 193.043 1153.32 193.073L1178.19 207.445C1182 209.639 1185.1 212.87 1187.13 216.76C1189.17 220.65 1190.06 225.039 1189.69 229.414C1189.33 233.789 1187.72 237.97 1185.07 241.469C1182.42 244.968 1178.83 247.64 1174.71 249.173V219.942C1174.69 219.237 1174.49 218.549 1174.12 217.947C1173.75 217.345 1173.23 216.849 1172.62 216.508ZM1182.97 200.942L1182.24 200.503L1157.66 186.18C1157.05 185.82 1156.35 185.63 1155.64 185.63C1154.93 185.63 1154.23 185.82 1153.62 186.18L1123.56 203.524V191.515C1123.55 191.454 1123.56 191.392 1123.59 191.336C1123.61 191.28 1123.65 191.233 1123.7 191.198L1148.57 176.85C1152.39 174.654 1156.74 173.589 1161.14 173.779C1165.53 173.969 1169.78 175.406 1173.39 177.923C1177 180.44 1179.82 183.932 1181.51 187.991C1183.21 192.05 1183.71 196.508 1182.97 200.844L1182.97 200.942ZM1117.88 222.231L1107.48 216.239C1107.43 216.208 1107.38 216.165 1107.35 216.115C1107.31 216.064 1107.29 216.007 1107.28 215.947V187.276C1107.29 182.878 1108.55 178.572 1110.91 174.862C1113.27 171.152 1116.64 168.191 1120.63 166.326C1124.61 164.461 1129.04 163.768 1133.4 164.329C1137.77 164.89 1141.88 166.681 1145.26 169.493L1144.53 169.907L1119.93 184.108C1119.31 184.467 1118.81 184.98 1118.45 185.595C1118.1 186.21 1117.91 186.906 1117.9 187.616L1117.88 222.231ZM1123.53 210.052L1136.93 202.33L1150.35 210.052V225.496L1136.98 233.218L1123.56 225.496L1123.53 210.052Z" fill="white"/>
</g>
</g>
<defs>
<linearGradient id="paint0_linear_102_279" x1="1550" y1="0" x2="1550" y2="469" gradientUnits="userSpaceOnUse">
<stop stop-color="#9858D8"/>
<stop offset="1" stop-color="#4643C6"/>
</linearGradient>
<clipPath id="clip0_102_279">
<rect width="3100" height="469" rx="10" fill="white"/>
</clipPath>
<clipPath id="clip1_102_279">
<rect width="123.576" height="123.576" fill="white" transform="translate(1589.47 156)"/>
</clipPath>
<clipPath id="clip2_102_279">
<rect width="123.576" height="123.576" fill="white" transform="translate(1075.11 156)"/>
</clipPath>
</defs>
</svg>
